HIERARCHY
ROOT root     
{
	OFFSET 0.0000 0.0000 0.0000
	CHANNELS 6 Xposition Yposition Zposition Zrotation Yrotation Xrotation
	JOINT pelvis   
	{
		OFFSET 0.0000 0.0000 0.0000
		CHANNELS 3 Zrotation Yrotation Xrotation
		JOINT thorax   
		{
			OFFSET 0.0000 23.0750 -5.0000
			CHANNELS 3 Zrotation Yrotation Xrotation
			JOINT rclavicle
			{
				OFFSET 0.0000 28.0009 0.0000
				CHANNELS 3 Zrotation Yrotation Xrotation
				JOINT rhumerus 
				{
					OFFSET -18.5725 5.5939 0.0000
					CHANNELS 3 Zrotation Yrotation Xrotation
					JOINT rradius  
					{
						OFFSET -24.8459 0.0000 0.0000
						CHANNELS 3 Zrotation Yrotation Xrotation
						JOINT rhand    
						{
							OFFSET -24.5477 0.0000 0.0000
							CHANNELS 3 Zrotation Yrotation Xrotation
							End Site
							{
								OFFSET -8.1826 0.0000 0.0000
							}
						}
					}
				}
			}
			JOINT lclavicle
			{
				OFFSET 0.0000 28.0009 0.0000
				CHANNELS 3 Zrotation Yrotation Xrotation
				JOINT lhumerus 
				{
					OFFSET 18.5725 5.5939 0.0000
					CHANNELS 3 Zrotation Yrotation Xrotation
					JOINT lradius  
					{
						OFFSET 24.8459 0.0000 0.0000
						CHANNELS 3 Zrotation Yrotation Xrotation
						JOINT lhand    
						{
							OFFSET 24.5477 0.0000 0.0000
							CHANNELS 3 Zrotation Yrotation Xrotation
							End Site
							{
								OFFSET 8.1826 0.0000 0.0000
							}
						}
					}
				}
			}
			JOINT head     
			{
				OFFSET 0.0000 35.2030 0.0000
				CHANNELS 3 Zrotation Yrotation Xrotation
				End Site
				{
					OFFSET 0.0000 11.7343 0.0000
				}
			}
		}
		JOINT rfemur   
		{
			OFFSET -8.2817 0.0000 0.0000
			CHANNELS 3 Zrotation Yrotation Xrotation
			JOINT rtibia   
			{
				OFFSET 0.0000 -43.3627 0.0000
				CHANNELS 3 Zrotation Yrotation Xrotation
				JOINT rfoot    
				{
					OFFSET 0.0000 -38.2947 0.0000
					CHANNELS 3 Zrotation Yrotation Xrotation
					JOINT rtoes    
					{
						OFFSET 0.0000 0.0000 16.6054
						CHANNELS 3 Zrotation Yrotation Xrotation
						End Site
						{
							OFFSET 0.0000 0.0000 5.5351
						}
					}
				}
			}
		}
		JOINT lfemur   
		{
			OFFSET 8.2817 0.0000 0.0000
			CHANNELS 3 Zrotation Yrotation Xrotation
			JOINT ltibia   
			{
				OFFSET 0.0000 -43.3627 0.0000
				CHANNELS 3 Zrotation Yrotation Xrotation
				JOINT lfoot    
				{
					OFFSET 0.0000 -38.2947 0.0000
					CHANNELS 3 Zrotation Yrotation Xrotation
					JOINT ltoes    
					{
						OFFSET 0.0000 0.0000 16.6054
						CHANNELS 3 Zrotation Yrotation Xrotation
						End Site
						{
							OFFSET 0.0000 0.0000 5.5351
						}
					}
				}
			}
		}
	}
}
MOTION
Frames: 13
Frame Time: .0333333
-38.712 78.044 -6.9126 -5.5073 72.6056 18.4978 0 -0 0 -1.44363 -0.216594 17.6093 17.9776 -10.5448 -7.94706e-06 51.7278 -12.5797 16.5937 -180 82.6916 -180 -3.77342 3.49609 -0.115201 -15.3934 16.3995 4.26823e-05 -59.6224 25.2938 7.43256 0 -71.3468 -0 1.34278 2.03327 0.0237994 6.24661 -6.0036 -18.4376 -0.703328 -8.47065 -25.5977 -0 -0 58.9523 -1.97988e-06 13.5633 -4.83963 -1.16599 6.8606e-07 -69.9102 -7.42501 9.42822 -64.6692 -0 -0 42.4397 -3.81424e-06 4.77905 9.45874 0.787197 2.46372e-06 -17.0038 
-37.933 78.043 -6.8495 -5.66269 72.4276 18.2853 0 -0 0 -1.8365 -0.3255 17.6082 18.0705 -10.543 -4.14406e-05 52.0422 -12.6158 16.6636 -180 83.2105 -180 -3.81885 3.53719 -0.117998 -15.3135 16.0639 3.72915e-05 -59.6277 24.856 7.18182 1.07679e-06 -71.1965 -7.70836e-07 1.53012 2.03197 0.0271002 6.67341 -5.93771 -18.2453 -0.83333 -8.41162 -25.585 -0 -0 59.7002 -9.61975e-06 13.3005 -3.6231 -0.855781 -2.62094e-06 -70.908 -7.48881 9.60668 -64.5861 -0 -0 43.5434 -9.3887e-06 5.03407 8.12281 0.713096 9.88329e-07 -17.689 
-37.164 78.052 -6.7845 -5.84118 72.2289 18.044 0 -0 0 -2.22658 -0.444903 17.6147 18.1286 -10.53 -6.18287e-05 52.3958 -12.61 16.7598 -180 83.8352 -180 -3.86085 3.58193 -0.120804 -15.2295 15.7494 1.86335e-06 -59.6091 24.4197 6.95373 0 -71.0986 -0 1.68515 2.03044 0.0299002 7.0346 -5.83078 -17.9713 -0.924588 -8.37758 -25.5902 -0 -0 60.4422 -3.79599e-06 12.9356 -2.40169 -0.551495 1.45944e-06 -71.734 -7.53329 9.78745 -64.407 -0 -0 44.4871 5.32985e-07 5.33787 6.79436 0.633289 -2.9005e-06 -18.5462 
-36.406 78.07 -6.7183 -6.04407 72.0074 17.775 0 -0 0 -2.61238 -0.574889 17.6229 18.1541 -10.5052 4.60575e-05 52.7792 -12.5656 16.8807 -180 84.5383 -180 -3.88523 3.63037 -0.123201 -15.1436 15.4609 6.32461e-05 -59.5622 23.9942 6.74413 0 -71.0616 -0 1.80505 2.02652 0.0319012 7.33133 -5.68539 -17.6186 -0.977576 -8.36557 -25.6155 -0 -0 61.182 -1.19193e-06 12.4768 -1.15875 -0.256407 1.16253e-06 -72.4365 -7.54271 9.96208 -64.1541 -0 -0 45.2978 1.59651e-06 5.66964 5.53752 0.548893 -2.16309e-06 -19.4293 
-35.659 78.093 -6.6513 -6.26762 71.7607 17.4876 0 -0 0 -2.99452 -0.71305 17.6257 18.1535 -10.4708 -3.29783e-06 53.1787 -12.491 17.026 -180 85.3097 -180 -3.88099 3.68264 -0.124801 -15.0571 15.2028 -5.91391e-05 -59.4856 23.5831 6.55115 0 -71.0932 -0 1.88863 2.01962 0.0333008 7.57108 -5.51116 -17.1933 -0.994587 -8.37072 -25.6696 -0 -0 61.9191 4.46206e-07 11.9333 0.114001 0.0240994 -2.27625e-07 -73.0149 -7.50985 10.125 -63.8525 -0 -0 46.0066 -5.6649e-06 6.00949 4.3985 0.462604 1.38436e-06 -20.204 
-34.926 78.119 -6.5844 -6.5085 71.4908 17.1864 0 -0 0 -3.37442 -0.856322 17.621 18.1342 -10.4288 7.34605e-05 53.5841 -12.3954 17.1856 -180 86.1368 -180 -3.84071 3.73816 -0.125398 -14.968 14.9751 9.51203e-06 -59.3827 23.1807 6.37613 0 -71.1829 -0 1.9376 2.0102 0.0340003 7.76694 -5.32078 -16.7093 -0.979431 -8.38925 -25.757 -0 -0 62.6569 7.61426e-06 11.3146 1.42736 0.285605 2.10402e-06 -73.4639 -7.43293 10.271 -63.5289 -0 -0 46.6488 -2.3992e-06 6.34054 3.4038 0.377999 1.16127e-06 -20.7802 
-34.208 78.147 -6.5177 -6.75168 71.2005 16.8919 0 -0 0 -3.75471 -1.00126 17.6088 18.108 -10.3811 4.95831e-05 53.9851 -12.2909 17.3502 -180 87.0028 -180 -3.76059 3.797 -0.124701 -14.8729 14.7775 7.92563e-05 -59.2496 22.7865 6.2191 7.7761e-07 -71.3323 -1.08351e-06 1.95582 1.9992 0.0341005 7.93405 -5.12917 -16.1795 -0.934851 -8.41754 -25.8845 -0 -0 63.4001 -1.80365e-07 10.625 2.78834 0.522898 -1.84481e-06 -73.765 -7.31697 10.3994 -63.2048 -0 -0 47.2551 -1.98915e-06 6.64965 2.55967 0.298295 -1.74649e-06 -21.1265 
-33.508 78.175 -6.4513 -6.99067 70.8964 16.6116 0 -0 0 -4.13764 -1.1424 17.5905 18.0863 -10.3313 -6.44226e-05 54.3688 -12.1897 17.5068 -180 87.8779 -180 -3.64164 3.85708 -0.122701 -14.7638 14.615 7.97902e-05 -59.0881 22.3812 6.09601 1.09327e-06 -71.5283 -7.87454e-07 1.94872 1.9906 0.0339006 8.08885 -4.95342 -15.6217 -0.864024 -8.45334 -26.0559 -0 -0 64.1487 7.92219e-06 9.86529 4.19263 0.7284 -2.82136e-06 -73.8742 -7.17308 10.5138 -62.8966 -0 -0 47.8482 2.72428e-08 6.92747 1.85391 0.225199 7.91484e-07 -21.2651 
-32.828 78.203 -6.3847 -7.2209 70.5771 16.3583 0 -0 0 -4.52325 -1.28087 17.5629 18.0705 -10.2776 -1.36097e-05 54.7387 -12.1031 17.6507 -180 88.7633 -180 -3.49073 3.92244 -0.1196 -14.6528 14.4524 3.72472e-05 -58.8914 22.0019 5.97454 0 -71.7927 -0 1.91933 1.98076 0.0332 8.24595 -4.80181 -15.0456 -0.764526 -8.49562 -26.2844 -0 -0 64.911 -4.93945e-06 9.02161 5.64431 0.894588 -6.61549e-06 -73.7831 -7.01428 10.6211 -62.6243 -0 -0 48.4441 -1.99632e-06 7.1697 1.26118 0.158602 4.47595e-08 -21.2561 
-32.17 78.231 -6.3175 -7.43113 70.2595 16.1362 0 -0 0 -4.91325 -1.4092 17.537 18.0741 -10.2264 -3.85416e-07 55.0808 -12.0402 17.7666 -180 89.6924 -180 -3.31552 3.98831 -0.115497 -14.5227 14.3117 1.21279e-05 -58.6615 21.6031 5.89164 0 -72.0934 -0 1.87539 1.97838 0.0323993 8.41697 -4.68978 -14.4668 -0.639681 -8.54386 -26.562 -0 -0 65.6856 -2.9399e-06 8.08798 7.10566 1.00708 1.58755e-06 -73.403 -6.85704 10.7317 -62.3863 -0 -0 49.0474 -5.05841e-07 7.37418 0.744097 0.0962998 -5.68661e-07 -21.1719 
-31.533 78.257 -6.2486 -7.6275 69.9395 15.9439 0 -0 0 -5.30647 -1.52553 17.5163 18.1041 -10.1795 3.10727e-05 55.3952 -12.0071 17.8508 -0.000153433 89.4979 -0.000153538 -3.12845 4.05415 -0.110801 -14.3748 14.1791 2.16904e-05 -58.3935 21.1903 5.84306 1.14121e-06 -72.4344 -8.35775e-07 1.82063 1.98548 0.0316005 8.60951 -4.62348 -13.8944 -0.487012 -8.59905 -26.8927 -0 -0 66.4721 6.09229e-06 7.04733 8.54147 1.05191 1.52223e-06 -72.6819 -6.7162 10.856 -62.1874 -0 -0 49.6592 -1.57368e-07 7.54306 0.2641 0.0349997 5.07377e-08 -21.0893 
-30.919 78.283 -6.1772 -7.81421 69.6253 15.7744 0 -0 0 -5.69983 -1.63275 17.5009 18.1571 -10.1359 5.163e-05 55.6847 -12.007 17.8999 -0 88.6748 -0 -2.94328 4.12286 -0.105999 -14.2168 14.0346 0.0001101 -58.0836 20.7832 5.81127 0 -72.8257 -0 1.75619 2.00132 0.0307001 8.825 -4.60018 -13.3311 -0.302792 -8.66239 -27.2753 -0 -0 67.2746 7.62395e-07 5.88173 9.90467 1.01519 -3.8159e-08 -71.5692 -6.60279 11.0077 -62.0195 -0 -0 50.2691 -1.02217e-08 7.68074 -0.214104 -0.0288997 -1.39744e-08 -21.0679 
-30.327 78.307 -6.1024 -7.99207 69.3224 15.624 0 -0 0 -6.09061 -1.73133 17.4978 18.2331 -10.0988 8.21944e-05 55.9478 -12.0387 17.9151 -0 87.8698 -0 -2.7723 4.19285 -0.101501 -14.0482 13.8808 -8.16811e-05 -57.7322 20.3751 5.79924 1.18922e-06 -73.2555 -8.84104e-07 1.68441 2.02679 0.0297998 9.06098 -4.61672 -12.7794 -0.084643 -8.73666 -27.7059 -0 -0 68.0915 -5.7762e-06 4.57989 11.1328 0.886097 -1.99046e-06 -70.0096 -6.52441 11.1933 -61.8772 -0 -0 50.8674 3.08197e-07 7.79278 -0.717997 -0.098299 -2.53866e-07 -21.1543 
